<?xml version="1.0" encoding="utf-8"?>
<!-- Generator: Adobe Illustrator 25.2.1, SVG Export Plug-In . SVG Version: 6.00 Build 0)  -->
<svg version="1.1" id="Layer_1" xmlns="http://www.w3.org/2000/svg" xmlns:xlink="http://www.w3.org/1999/xlink" x="0px" y="0px"
	 viewBox="0 0 1931.12 612" style="enable-background:new 0 0 1931.12 612;" xml:space="preserve">
<style type="text/css">
	.st0{fill:#FFFFFF;}
	.st1{fill:url(#SVGID_1_);}
	.st2{fill:url(#SVGID_2_);}
	.st3{fill:url(#SVGID_3_);}
	.st4{fill:url(#SVGID_4_);}
	.st5{fill:url(#SVGID_5_);}
	.st6{fill:url(#SVGID_6_);}
	.st7{fill:#0E0E3D;}
	.st8{fill:url(#SVGID_7_);}
	.st9{fill:url(#SVGID_8_);}
</style>
<linearGradient id="SVGID_1_" gradientUnits="userSpaceOnUse" x1="106.8262" y1="533.4135" x2="534.3624" y2="105.8773">
	<stop  offset="0" style="stop-color:#229ABD"/>
	<stop  offset="1" style="stop-color:#BFD3D8"/>
</linearGradient>
<path class="st1" d="M374.47,97.45v0.57c0,0.38-0.03,0.79-0.06,1.14l-0.03,0.6c-0.03,0.6-0.06,1.17-0.13,1.71v0.16
	c-1.33,15.48-8.25,28.74-18.94,37.79c-5.62,4.73-12.28,8.31-19.77,10.41l-0.1,0.03c-3.45,1.12-7.24,1.64-10.78,1.85
	c0.32-8.3,0.5-16.78,0.5-25.43c0-26.53-1.56-51.65-4.34-74.13c-2.78,22.48-4.35,47.6-4.35,74.13c0,8.67,0.18,17.17,0.5,25.49
	c-1.64-0.07-3.01-0.18-3.96-0.27h-0.13c-0.44,0-0.89-0.03-1.3-0.19l-5.46-1.49c-21.86-6.12-36.71-24.59-38.74-48.19l-0.03-0.29
	c-0.06-0.51-0.1-1.05-0.13-1.59l-0.03-0.44c0-0.44-0.03-0.89-0.03-1.33v-0.54c-0.06-4.89,0.32-9.77,1.43-14.53
	c5.74-24.05,21.29-47.94,47.59-73.1c0.73-0.73,1.46-1.46,2.19-2.22c0.6-0.7,1.59-1.71,2.44-2.51c0.86,0.79,1.81,1.81,2.41,2.51
	c0.76,0.76,1.46,1.49,2.22,2.22c21.26,20.34,35.47,39.82,43.18,59.26c1.81,4.63,3.27,9.26,4.38,13.86
	C374.15,87.68,374.53,92.57,374.47,97.45z M250.73,87.62c-3.26-3.43-6.84-6.71-10.72-9.82c-16.4-12.99-38.45-22.75-67.03-29.73
	c-1.02-0.25-1.99-0.53-3.03-0.81c-0.87-0.3-2.2-0.71-3.34-0.96c-0.35,1.12-0.69,2.49-0.86,3.39c-0.25,1.02-0.52,2.02-0.79,3.02
	c-10.2,34.94-11.72,63.4-4.66,87.1c1.42,4.68,3.53,9.1,6.03,13.3l0.27,0.47c0.22,0.38,0.47,0.75,0.69,1.14l0.25,0.37
	c0.3,0.45,0.59,0.9,0.9,1.31l0.17,0.23c13.56,19.43,35.65,27.99,57.64,22.37l5.47-1.44c0.44-0.07,0.84-0.26,1.22-0.49l0.11-0.06
	c0.87-0.4,2.11-0.99,3.57-1.75c-4.44-7.05-8.85-14.32-13.18-21.82c-13.26-22.97-24.47-45.51-33.3-66.37
	c13.65,18.08,27.56,39.05,40.83,62.02c4.32,7.49,8.4,14.92,12.28,22.27c2.96-1.96,5.99-4.3,8.41-7l0.07-0.08
	c5.44-5.56,9.41-11.99,11.91-18.89c4.74-13.18,4.1-28.12-2.49-42.19l-0.08-0.14c-0.21-0.5-0.47-1.01-0.75-1.55l-0.27-0.54
	c-0.15-0.32-0.33-0.69-0.52-1.02l-0.29-0.49C256.85,95.18,254.08,91.14,250.73,87.62z M147.16,152.8c-4.54-1.34-9.28-2.39-14.2-3.14
	c-20.7-3.05-44.67-0.48-72.91,7.76c-1.01,0.29-1.99,0.53-3.03,0.81c-0.91,0.17-2.26,0.49-3.38,0.83c0.26,1.14,0.65,2.5,0.95,3.37
	c0.29,1.01,0.56,2.01,0.83,3.01c8.64,35.36,21.55,60.76,39.51,77.76c3.57,3.34,7.61,6.11,11.87,8.5l0.47,0.27
	c0.38,0.22,0.79,0.42,1.17,0.64l0.4,0.19c0.48,0.24,0.97,0.48,1.44,0.68l0.26,0.12c21.46,10.04,44.87,6.42,61.1-9.45l4.02-3.98
	c0.34-0.28,0.59-0.65,0.82-1.03l0.06-0.11c0.55-0.78,1.33-1.91,2.22-3.3c-7.37-3.88-14.82-7.97-22.33-12.31
	c-22.97-13.26-43.95-27.18-62.02-40.83c20.86,8.83,43.4,20.04,66.37,33.3c7.49,4.32,14.74,8.72,21.77,13.15
	c1.58-3.18,3.03-6.72,3.79-10.27l0.02-0.1c1.93-7.53,2.16-15.09,0.87-22.32c-2.48-13.78-10.51-26.4-23.25-35.3l-0.14-0.08
	c-0.44-0.32-0.91-0.64-1.42-0.97l-0.51-0.33c-0.29-0.2-0.63-0.44-0.96-0.63l-0.49-0.29C156.24,156.28,151.82,154.17,147.16,152.8z
	 M85.8,262.45c-4.6,1.11-9.23,2.57-13.86,4.38c-19.45,7.71-38.93,21.92-59.26,43.18c-0.73,0.76-1.46,1.46-2.22,2.22
	c-0.7,0.6-1.71,1.55-2.51,2.41c0.79,0.86,1.81,1.84,2.51,2.44c0.76,0.73,1.49,1.46,2.22,2.19c25.16,26.3,49.05,41.85,73.1,47.59
	c4.76,1.11,9.64,1.49,14.53,1.43h0.54c0.44,0,0.89-0.03,1.33-0.03l0.44-0.03c0.54-0.03,1.08-0.06,1.59-0.13l0.29-0.03
	c23.6-2.03,42.07-16.88,48.19-38.74l1.49-5.46c0.16-0.41,0.19-0.86,0.19-1.3v-0.13c0.09-0.96,0.2-2.32,0.27-3.96
	c-8.33,0.32-16.82,0.5-25.49,0.5c-26.53,0-51.65-1.56-74.13-4.35c22.48-2.78,47.6-4.34,74.13-4.34c8.65,0,17.12,0.18,25.43,0.5
	c-0.22-3.54-0.73-7.33-1.85-10.78l-0.03-0.1c-2.09-7.49-5.68-14.15-10.41-19.77c-9.04-10.69-22.3-17.61-37.79-18.94h-0.16
	c-0.54-0.06-1.11-0.1-1.71-0.13l-0.6-0.03c-0.35-0.03-0.76-0.06-1.14-0.06h-0.57C95.41,260.93,90.53,261.31,85.8,262.45z
	 M87.06,397.16c-2.83,3.79-5.47,7.87-7.88,12.22c-10.05,18.35-15.97,41.72-18.06,71.07c-0.08,1.05-0.19,2.05-0.29,3.13
	c-0.15,0.91-0.33,2.29-0.39,3.46c1.16,0.15,2.57,0.26,3.49,0.28c1.05,0.08,2.08,0.17,3.11,0.27c36.15,4.19,64.47,0.9,86.64-10.03
	c4.37-2.18,8.38-5.01,12.1-8.18l0.42-0.34c0.34-0.28,0.66-0.59,1.01-0.87l0.32-0.31c0.39-0.37,0.79-0.74,1.14-1.11l0.2-0.21
	c16.87-16.63,21.61-39.85,12.37-60.58l-2.34-5.15c-0.14-0.42-0.4-0.78-0.68-1.12l-0.08-0.1c-0.54-0.79-1.33-1.91-2.32-3.22
	c-6.2,5.56-12.63,11.13-19.3,16.66c-20.42,16.93-40.76,31.77-59.84,43.97c15.53-16.49,33.87-33.73,54.29-50.66
	c6.66-5.52,13.3-10.79,19.89-15.84c-2.43-2.59-5.24-5.18-8.31-7.12l-0.09-0.05c-6.39-4.43-13.4-7.27-20.63-8.57
	c-13.78-2.46-28.41,0.68-41.18,9.54l-0.12,0.1c-0.46,0.3-0.92,0.64-1.4,1l-0.48,0.36c-0.29,0.2-0.63,0.44-0.92,0.68l-0.44,0.36
	C93.49,389.85,89.97,393.27,87.06,397.16z M381.95,99.44l-0.29,0.49c-0.19,0.33-0.37,0.7-0.52,1.02l-0.27,0.54
	c-0.27,0.54-0.53,1.05-0.75,1.55l-0.08,0.14c-6.59,14.07-7.23,29.02-2.49,42.19c2.5,6.9,6.48,13.34,11.91,18.89l0.07,0.08
	c2.43,2.7,5.45,5.04,8.41,7c3.88-7.35,7.96-14.78,12.28-22.27c13.26-22.97,27.18-43.95,40.83-62.02
	c-8.83,20.86-20.04,43.4-33.3,66.37c-4.33,7.51-8.74,14.78-13.18,21.82c1.46,0.76,2.7,1.35,3.57,1.75l0.11,0.06
	c0.38,0.22,0.79,0.42,1.22,0.49l5.47,1.44c21.99,5.63,44.08-2.94,57.64-22.37l0.17-0.23c0.31-0.41,0.61-0.86,0.9-1.31l0.25-0.37
	c0.22-0.38,0.47-0.75,0.69-1.14l0.27-0.47c2.5-4.2,4.61-8.62,6.03-13.3c7.05-23.7,5.53-52.16-4.66-87.1c-0.27-1-0.53-1.99-0.79-3.02
	c-0.17-0.91-0.52-2.28-0.86-3.39c-1.14,0.26-2.47,0.66-3.34,0.96c-1.04,0.28-2.01,0.56-3.03,0.81
	c-28.58,6.98-50.63,16.75-67.03,29.73c-3.88,3.11-7.46,6.39-10.72,9.82C387.11,91.14,384.34,95.18,381.95,99.44z M480.75,158.78
	l-0.49,0.29c-0.33,0.19-0.67,0.42-0.96,0.63l-0.51,0.33c-0.51,0.33-0.98,0.64-1.42,0.97l-0.14,0.08
	c-12.74,8.9-20.77,21.52-23.25,35.3c-1.29,7.23-1.06,14.79,0.87,22.32l0.02,0.1c0.75,3.55,2.2,7.09,3.79,10.27
	c7.03-4.43,14.28-8.83,21.77-13.15c22.97-13.26,45.51-24.47,66.37-33.3c-18.08,13.65-39.05,27.56-62.02,40.83
	c-7.51,4.33-14.96,8.42-22.33,12.31c0.88,1.39,1.66,2.52,2.22,3.3l0.06,0.11c0.22,0.38,0.47,0.75,0.82,1.03l4.02,3.98
	c16.23,15.87,39.65,19.5,61.1,9.45l0.26-0.12c0.47-0.2,0.95-0.44,1.44-0.68l0.4-0.19c0.38-0.22,0.79-0.42,1.17-0.64l0.47-0.27
	c4.26-2.39,8.3-5.16,11.87-8.5c17.96-17,30.87-42.4,39.51-77.76c0.27-1,0.53-1.99,0.83-3.01c0.3-0.87,0.69-2.23,0.95-3.37
	c-1.12-0.35-2.47-0.66-3.38-0.83c-1.04-0.28-2.02-0.52-3.03-0.81c-28.24-8.24-52.22-10.81-72.91-7.76c-4.92,0.75-9.66,1.8-14.2,3.14
	C489.37,154.17,484.94,156.28,480.75,158.78z M540.89,260.99h-0.57c-0.38,0-0.79,0.03-1.14,0.06l-0.6,0.03
	c-0.6,0.03-1.17,0.06-1.71,0.13h-0.16c-15.48,1.33-28.74,8.25-37.79,18.94c-4.73,5.62-8.31,12.28-10.41,19.77l-0.03,0.1
	c-1.12,3.45-1.64,7.24-1.85,10.78c8.3-0.32,16.78-0.5,25.43-0.5c26.53,0,51.65,1.56,74.13,4.34c-22.48,2.78-47.6,4.35-74.13,4.35
	c-8.67,0-17.17-0.18-25.49-0.5c0.07,1.64,0.18,3.01,0.27,3.96v0.13c0,0.44,0.03,0.89,0.19,1.3l1.49,5.46
	c6.12,21.86,24.59,36.71,48.19,38.74l0.29,0.03c0.51,0.06,1.05,0.1,1.59,0.13l0.44,0.03c0.44,0,0.89,0.03,1.33,0.03h0.54
	c4.89,0.06,9.77-0.32,14.53-1.43c24.05-5.74,47.94-21.29,73.1-47.59c0.73-0.73,1.46-1.46,2.22-2.19c0.7-0.6,1.71-1.59,2.51-2.44
	c-0.79-0.86-1.81-1.81-2.51-2.41c-0.76-0.76-1.49-1.46-2.22-2.22c-20.34-21.26-39.82-35.47-59.26-43.18
	c-4.63-1.81-9.26-3.27-13.86-4.38C550.66,261.31,545.78,260.93,540.89,260.99z M543.9,386.78l-0.44-0.36
	c-0.29-0.24-0.63-0.48-0.92-0.68l-0.48-0.36c-0.48-0.36-0.94-0.7-1.4-1l-0.12-0.1c-12.77-8.86-27.39-12-41.18-9.54
	c-7.22,1.31-14.24,4.15-20.63,8.57l-0.09,0.05c-3.07,1.94-5.88,4.53-8.31,7.12c6.6,5.05,13.24,10.33,19.89,15.84
	c20.42,16.93,38.76,34.17,54.29,50.66c-19.08-12.21-39.42-27.04-59.84-43.97c-6.67-5.53-13.1-11.1-19.3-16.66
	c-0.99,1.31-1.78,2.43-2.32,3.22l-0.08,0.1c-0.28,0.34-0.54,0.7-0.68,1.12l-2.34,5.15c-9.24,20.74-4.5,43.95,12.37,60.58l0.2,0.21
	c0.35,0.37,0.75,0.74,1.14,1.11l0.32,0.31c0.34,0.28,0.66,0.59,1.01,0.87l0.42,0.34c3.72,3.17,7.72,5.99,12.1,8.18
	c22.18,10.93,50.49,14.21,86.64,10.03c1.03-0.1,2.05-0.19,3.11-0.27c0.92-0.02,2.33-0.13,3.49-0.28c-0.06-1.17-0.24-2.55-0.39-3.46
	c-0.1-1.07-0.22-2.08-0.29-3.13c-2.09-29.34-8.01-52.72-18.06-71.07c-2.41-4.35-5.05-8.43-7.88-12.22
	C551.22,393.27,547.7,389.85,543.9,386.78z"/>
<g>
	<path class="st7" d="M866.65,159.65c2.73,9.36,5.75,19.91,9.05,31.66c3.31,11.76,6.84,23.92,10.6,36.46
		c3.75,12.55,7.58,25.11,11.45,37.65c3.88,12.56,7.63,24.2,11.29,34.92c2.98-11.64,6.01-24.3,9.11-37.99
		c3.09-13.7,6.01-27.85,8.76-42.45c2.76-14.6,5.45-29.15,8.08-43.64c2.64-14.49,5.1-28.47,7.4-41.94h55.48
		c-8.04,39.71-17.28,79.99-27.73,120.85s-21.75,79.65-33.91,116.39h-48.85c-7.97-21.91-15.72-44.9-23.24-68.98
		c-7.52-24.07-14.92-48.21-22.21-72.4c-7.31,24.19-14.62,48.32-21.94,72.4c-7.31,24.08-14.97,47.07-22.96,68.98h-48.81
		c-12.15-36.74-23.44-75.53-33.86-116.39c-10.43-40.85-19.65-81.13-27.68-120.85h57.85c2.29,13.47,4.81,27.45,7.57,41.94
		c2.75,14.49,5.62,29.05,8.6,43.64c2.98,14.61,6.01,28.75,9.11,42.45c3.1,13.69,6.25,26.35,9.46,37.99
		c4.12-11.18,8.12-23.05,12.01-35.6c3.88-12.55,7.66-25.1,11.31-37.66c3.66-12.55,7.03-24.65,10.11-36.29
		c3.09-11.64,5.89-22.02,8.41-31.15H866.65z"/>
	<path class="st7" d="M1185.56,281.17c0,14.15-2.06,27.1-6.16,38.85c-4.11,11.75-10.04,21.8-17.8,30.12
		c-7.76,8.34-17.06,14.78-27.91,19.34c-10.84,4.57-22.99,6.85-36.46,6.85c-13.24,0-25.28-2.29-36.11-6.85
		c-10.84-4.56-20.14-11-27.9-19.34c-7.76-8.33-13.81-18.37-18.15-30.12c-4.34-11.75-6.5-24.7-6.5-38.85s2.23-27.05,6.67-38.69
		c4.45-11.64,10.62-21.57,18.49-29.78c7.87-8.21,17.23-14.6,28.07-19.17c10.84-4.56,22.65-6.84,35.43-6.84
		c13.01,0,24.93,2.29,35.78,6.84c10.84,4.57,20.14,10.96,27.9,19.17c7.75,8.21,13.8,18.14,18.15,29.78
		C1183.39,254.12,1185.56,267.03,1185.56,281.17z M1133.53,281.17c0-15.76-3.14-28.13-9.41-37.14
		c-6.28-9.02-15.23-13.52-26.87-13.52c-11.64,0-20.66,4.5-27.04,13.52c-6.39,9.02-9.58,21.39-9.58,37.14
		c0,15.75,3.19,28.24,9.58,37.48c6.39,9.25,15.4,13.87,27.04,13.87c11.64,0,20.59-4.62,26.87-13.87
		C1130.39,309.42,1133.53,296.92,1133.53,281.17z"/>
	<path class="st7" d="M1389.32,281.51c0,14.38-2.11,27.39-6.33,39.03c-4.23,11.64-10.33,21.57-18.32,29.79
		c-7.99,8.21-17.8,14.55-29.44,19s-24.88,6.68-39.71,6.68c-6.16,0-12.61-0.29-19.34-0.86c-6.74-0.57-13.35-1.32-19.86-2.23
		c-6.5-0.92-12.73-2-18.65-3.25c-5.94-1.25-11.19-2.57-15.75-3.94V114.11l51-8.21v89.69c5.71-2.51,11.64-4.45,17.8-5.82
		c6.16-1.37,12.78-2.06,19.85-2.06c12.78,0,24.07,2.23,33.89,6.68c9.81,4.45,18.02,10.78,24.65,19
		c6.61,8.21,11.64,18.09,15.06,29.61C1387.6,254.53,1389.32,267.36,1389.32,281.51z M1337.28,280.14c0-32.86-12.1-49.3-36.29-49.3
		c-5.25,0-10.44,0.69-15.58,2.06c-5.13,1.37-9.3,3.08-12.5,5.13v92.77c2.51,0.46,5.71,0.86,9.59,1.2c3.88,0.34,8.1,0.51,12.66,0.51
		c13.92,0,24.42-4.8,31.49-14.38C1333.74,308.56,1337.28,295.89,1337.28,280.14z"/>
	<path class="st7" d="M1594.05,281.51c0,14.38-2.11,27.39-6.33,39.03c-4.22,11.64-10.32,21.57-18.32,29.79
		c-7.99,8.21-17.8,14.55-29.43,19c-11.64,4.45-24.88,6.68-39.71,6.68c-6.16,0-12.61-0.29-19.34-0.86
		c-6.73-0.57-13.35-1.32-19.85-2.23c-6.51-0.92-12.73-2-18.66-3.25c-5.93-1.25-11.18-2.57-15.75-3.94V114.11l51.01-8.21v89.69
		c5.7-2.51,11.64-4.45,17.8-5.82c6.16-1.37,12.77-2.06,19.85-2.06c12.78,0,24.07,2.23,33.89,6.68c9.81,4.45,18.02,10.78,24.65,19
		c6.61,8.21,11.64,18.09,15.07,29.61C1592.34,254.53,1594.05,267.36,1594.05,281.51z M1542.02,280.14c0-32.86-12.1-49.3-36.29-49.3
		c-5.25,0-10.44,0.69-15.57,2.06c-5.14,1.37-9.31,3.08-12.5,5.13v92.77c2.51,0.46,5.7,0.86,9.58,1.2c3.88,0.34,8.1,0.51,12.66,0.51
		c13.92,0,24.42-4.8,31.5-14.38C1538.48,308.56,1542.02,295.89,1542.02,280.14z"/>
	<path class="st7" d="M1702.7,374.97c-14.84-0.23-26.87-1.84-36.11-4.8c-9.25-2.97-16.55-7.13-21.91-12.5
		c-5.36-5.36-9.02-11.86-10.95-19.51c-1.94-7.65-2.91-16.27-2.91-25.85V114.11l51.01-8.21v196.15c0,4.57,0.34,8.68,1.02,12.33
		c0.69,3.65,2,6.73,3.94,9.24c1.93,2.52,4.73,4.57,8.39,6.16c3.65,1.6,8.56,2.62,14.71,3.08L1702.7,374.97z"/>
	<path class="st7" d="M1728.69,282.88c0-15.97,2.45-29.95,7.36-41.93c4.9-11.98,11.35-21.96,19.34-29.96
		c7.98-7.98,17.17-14.03,27.56-18.14c10.38-4.11,21.04-6.16,32-6.16c25.56,0,45.75,7.82,60.59,23.45
		c14.83,15.64,22.25,38.63,22.25,68.98c0,2.97-0.11,6.22-0.34,9.76c-0.23,3.54-0.46,6.68-0.69,9.41h-115.71
		c1.14,10.5,6.05,18.83,14.72,24.98c8.67,6.16,20.31,9.25,34.92,9.25c9.35,0,18.54-0.86,27.55-2.57s16.37-3.82,22.09-6.33
		l6.84,41.43c-2.74,1.37-6.39,2.74-10.96,4.11c-4.57,1.37-9.64,2.56-15.23,3.59c-5.59,1.02-11.58,1.88-17.97,2.56
		c-6.39,0.69-12.78,1.03-19.16,1.03c-16.21,0-30.3-2.4-42.28-7.19c-11.98-4.8-21.9-11.36-29.78-19.68
		c-7.87-8.33-13.69-18.2-17.46-29.61C1730.57,308.44,1728.69,296.12,1728.69,282.88z M1848.51,263.37
		c-0.23-4.34-0.98-8.56-2.23-12.66c-1.26-4.11-3.21-7.76-5.82-10.96c-2.63-3.19-5.94-5.82-9.93-7.87c-4-2.06-8.96-3.08-14.9-3.08
		c-5.7,0-10.61,0.97-14.71,2.91c-4.12,1.94-7.53,4.51-10.27,7.7c-2.74,3.21-4.86,6.91-6.33,11.13c-1.49,4.23-2.57,8.5-3.26,12.84
		H1848.51z"/>
</g>
<linearGradient id="SVGID_2_" gradientUnits="userSpaceOnUse" x1="288.1595" y1="288.0537" x2="353.0291" y2="223.1841">
	<stop  offset="0" style="stop-color:#42617C"/>
	<stop  offset="1" style="stop-color:#12263F"/>
</linearGradient>
<circle class="st2" cx="320.59" cy="255.62" r="45.86"/>
<linearGradient id="SVGID_3_" gradientUnits="userSpaceOnUse" x1="157.7975" y1="436.2111" x2="490.3216" y2="436.2111">
	<stop  offset="0" style="stop-color:#42617C"/>
	<stop  offset="1" style="stop-color:#12263F"/>
</linearGradient>
<path class="st3" d="M490.32,268.56c0,0-85.22,29.71-144.11,104.5c-8.25,11.64-15.64,23.28-22.15,34.75
	c-6.51-11.47-13.9-23.11-22.15-34.75c-58.9-74.79-144.11-104.5-144.11-104.5c80.87,77.31,129,163.92,129,226.9
	c0,21.98-5.82,41-18.07,55.77c-6.86,8.34-15.46,14.85-25.54,19.72l-2.61,1.22l-45,21.46h-0.09l-21.54,10.25h150.1h150.1
	l-21.54-10.25h-0.09l-45-21.46l-2.61-1.22c-10.08-4.86-18.68-11.38-25.54-19.72c-12.25-14.77-18.07-33.79-18.07-55.77
	C361.33,432.48,409.45,345.87,490.32,268.56z"/>
<g>
	<path class="st7" d="M726.87,459.32c1.62,0,2.98,0.53,4.06,1.57c1.09,1.05,1.63,2.39,1.63,4.02c0,1.62-0.55,2.96-1.63,4.01
		c-1.08,1.05-2.44,1.57-4.06,1.57h-26.92c-1.62,0-2.98-0.52-4.06-1.57c-1.09-1.05-1.62-2.38-1.62-4.01c0-1.62,0.54-2.97,1.62-4.02
		c1.09-1.04,2.44-1.57,4.06-1.57H726.87z M725.76,437.48c1.48,0,2.94,0.2,4.36,0.61c1.43,0.41,2.61,1.07,3.56,1.98
		c0.94,0.92,1.42,2.12,1.42,3.61c0,1.7-0.49,3.03-1.47,4.01c-0.98,0.98-2.11,1.47-3.4,1.47c-0.61,0-1.53-0.15-2.75-0.46
		c-1.22-0.3-2.4-0.46-3.55-0.46c-1.7,0-3,0.38-3.91,1.12c-0.92,0.74-1.55,1.61-1.88,2.59c-0.34,0.98-0.5,1.85-0.5,2.6v51.9
		c0,1.77-0.58,3.24-1.73,4.42s-2.61,1.78-4.36,1.78c-1.77,0-3.22-0.59-4.37-1.78c-1.16-1.18-1.73-2.66-1.73-4.42v-51.8
		c0-4.8,1.7-8.87,5.08-12.19C713.91,439.14,718.99,437.48,725.76,437.48z M745.46,451.7c-2.3,0-3.92-0.37-4.87-1.11
		c-0.94-0.74-1.42-2.07-1.42-3.97v-1.93c0-1.97,0.53-3.3,1.57-4.02c1.05-0.71,2.66-1.06,4.83-1.06c2.37,0,4.03,0.37,4.97,1.11
		c0.95,0.75,1.43,2.07,1.43,3.97v1.93c0,1.97-0.51,3.3-1.53,4.02C749.43,451.34,747.77,451.7,745.46,451.7z M751.66,506.45
		c0,1.77-0.57,3.24-1.73,4.42c-1.15,1.18-2.61,1.78-4.36,1.78c-1.77,0-3.21-0.59-4.37-1.78c-1.15-1.18-1.72-2.66-1.72-4.42V464.5
		c0-1.77,0.57-3.23,1.72-4.42c1.16-1.18,2.61-1.78,4.37-1.78c1.76,0,3.21,0.59,4.36,1.78c1.16,1.19,1.73,2.66,1.73,4.42V506.45z"/>
	<path class="st7" d="M802.89,457.29c5.02,0,8.82,1.05,11.43,3.15c2.61,2.09,4.41,4.89,5.39,8.38s1.47,7.37,1.47,11.63v26
		c0,1.77-0.57,3.24-1.73,4.42c-1.15,1.18-2.61,1.78-4.36,1.78c-1.77,0-3.22-0.59-4.37-1.78s-1.72-2.66-1.72-4.42v-26
		c0-2.23-0.29-4.25-0.87-6.05c-0.57-1.79-1.61-3.23-3.1-4.32c-1.49-1.08-3.62-1.62-6.4-1.62c-2.71,0-4.99,0.55-6.85,1.62
		c-1.86,1.09-3.29,2.53-4.27,4.32c-0.98,1.8-1.47,3.82-1.47,6.05v26c0,1.77-0.57,3.24-1.73,4.42c-1.15,1.18-2.61,1.78-4.36,1.78
		c-1.77,0-3.21-0.59-4.37-1.78c-1.15-1.18-1.72-2.66-1.72-4.42V464.5c0-1.77,0.57-3.23,1.72-4.42c1.16-1.18,2.61-1.78,4.37-1.78
		c1.76,0,3.21,0.59,4.36,1.78c1.16,1.19,1.73,2.66,1.73,4.42v4.36l-1.53-0.3c0.61-1.15,1.49-2.38,2.64-3.71
		c1.16-1.32,2.51-2.55,4.07-3.71c1.55-1.15,3.31-2.08,5.28-2.79C798.46,457.64,800.6,457.29,802.89,457.29z"/>
	<path class="st7" d="M888.36,437.48c1.77,0,3.21,0.57,4.37,1.73c1.15,1.15,1.72,2.64,1.72,4.47v62.77c0,1.77-0.57,3.24-1.72,4.42
		c-1.16,1.18-2.61,1.78-4.37,1.78c-1.76,0-3.21-0.59-4.36-1.78c-1.16-1.18-1.73-2.66-1.73-4.42v-4.97l2.23,0.91
		c0,0.88-0.48,1.95-1.42,3.21c-0.94,1.25-2.23,2.48-3.86,3.7c-1.62,1.22-3.54,2.25-5.74,3.1c-2.2,0.85-4.58,1.27-7.16,1.27
		c-4.67,0-8.9-1.2-12.7-3.6c-3.79-2.4-6.78-5.72-8.99-9.96c-2.2-4.23-3.29-9.09-3.29-14.57c0-5.55,1.1-10.45,3.29-14.68
		c2.21-4.23,5.17-7.55,8.89-9.96c3.73-2.4,7.85-3.6,12.39-3.6c2.91,0,5.59,0.44,8.03,1.32c2.44,0.87,4.56,2,6.35,3.35
		c1.79,1.36,3.18,2.73,4.16,4.12s1.47,2.56,1.47,3.51l-3.66,1.32v-27.22c0-1.77,0.57-3.23,1.73-4.42
		C885.15,438.07,886.6,437.48,888.36,437.48z M867.85,502.49c2.98,0,5.58-0.75,7.82-2.23c2.24-1.49,3.98-3.52,5.24-6.09
		c1.25-2.58,1.88-5.46,1.88-8.64c0-3.25-0.63-6.16-1.88-8.73c-1.25-2.58-2.99-4.61-5.24-6.1c-2.23-1.48-4.84-2.23-7.82-2.23
		c-2.91,0-5.48,0.75-7.72,2.23c-2.23,1.49-3.98,3.52-5.24,6.1c-1.25,2.57-1.88,5.48-1.88,8.73c0,3.18,0.63,6.06,1.88,8.64
		c1.25,2.57,3,4.6,5.24,6.09C862.36,501.74,864.93,502.49,867.85,502.49z"/>
	<path class="st7" d="M922.62,451.7c-2.3,0-3.93-0.37-4.87-1.11c-0.95-0.74-1.42-2.07-1.42-3.97v-1.93c0-1.97,0.52-3.3,1.57-4.02
		c1.05-0.71,2.66-1.06,4.82-1.06c2.38,0,4.03,0.37,4.98,1.11c0.94,0.75,1.42,2.07,1.42,3.97v1.93c0,1.97-0.51,3.3-1.53,4.02
		C926.58,451.34,924.91,451.7,922.62,451.7z M928.81,506.45c0,1.77-0.57,3.24-1.72,4.42c-1.16,1.18-2.61,1.78-4.37,1.78
		c-1.76,0-3.21-0.59-4.36-1.78c-1.16-1.18-1.73-2.66-1.73-4.42V464.5c0-1.77,0.57-3.23,1.73-4.42c1.15-1.18,2.61-1.78,4.36-1.78
		c1.77,0,3.21,0.59,4.37,1.78c1.15,1.19,1.72,2.66,1.72,4.42V506.45z"/>
	<path class="st7" d="M980.02,457.29c5.02,0,8.82,1.05,11.43,3.15c2.61,2.09,4.41,4.89,5.39,8.38s1.47,7.37,1.47,11.63v26
		c0,1.77-0.57,3.24-1.73,4.42c-1.15,1.18-2.61,1.78-4.36,1.78c-1.77,0-3.22-0.59-4.37-1.78s-1.72-2.66-1.72-4.42v-26
		c0-2.23-0.29-4.25-0.87-6.05c-0.57-1.79-1.61-3.23-3.1-4.32c-1.49-1.08-3.62-1.62-6.4-1.62c-2.71,0-4.99,0.55-6.85,1.62
		c-1.86,1.09-3.29,2.53-4.27,4.32c-0.98,1.8-1.47,3.82-1.47,6.05v26c0,1.77-0.57,3.24-1.73,4.42c-1.15,1.18-2.61,1.78-4.36,1.78
		c-1.77,0-3.21-0.59-4.37-1.78c-1.15-1.18-1.72-2.66-1.72-4.42V464.5c0-1.77,0.57-3.23,1.72-4.42c1.16-1.18,2.61-1.78,4.37-1.78
		c1.76,0,3.21,0.59,4.36,1.78c1.16,1.19,1.73,2.66,1.73,4.42v4.36l-1.53-0.3c0.61-1.15,1.49-2.38,2.64-3.71
		c1.16-1.32,2.51-2.55,4.07-3.71c1.55-1.15,3.31-2.08,5.28-2.79C975.59,457.64,977.73,457.29,980.02,457.29z"/>
	<path class="st7" d="M1043.39,457.29c2.84,0,5.45,0.44,7.82,1.32c2.38,0.87,4.42,2,6.15,3.35c1.73,1.36,3.08,2.73,4.06,4.12
		c0.98,1.39,1.47,2.56,1.47,3.51l-2.64,1.32v-7.41c0-1.77,0.57-3.23,1.73-4.42c1.15-1.18,2.61-1.78,4.36-1.78
		c1.77,0,3.21,0.57,4.37,1.73c1.15,1.15,1.72,2.64,1.72,4.47v45.2c0,5.9-1.26,10.62-3.81,14.17c-2.53,3.56-5.87,6.13-10.01,7.72
		c-4.13,1.59-8.57,2.39-13.31,2.39c-1.35,0-3.12-0.18-5.28-0.51c-2.16-0.34-4.23-0.74-6.2-1.22c-1.96-0.48-3.45-0.92-4.47-1.32
		c-2.03-0.87-3.44-1.98-4.21-3.29c-0.78-1.32-0.93-2.73-0.46-4.22c0.61-1.96,1.59-3.3,2.95-4.01c1.35-0.72,2.77-0.79,4.27-0.26
		c0.67,0.2,1.79,0.61,3.36,1.22c1.55,0.61,3.26,1.17,5.12,1.68c1.86,0.5,3.51,0.76,4.93,0.76c5.08,0,8.84-1.02,11.28-3.05
		s3.66-4.84,3.66-8.43v-8.83l1.22,0.91c0,0.88-0.46,1.95-1.37,3.21c-0.92,1.25-2.17,2.48-3.76,3.7s-3.47,2.25-5.63,3.1
		c-2.17,0.85-4.47,1.27-6.91,1.27c-4.81,0-9.15-1.2-13.01-3.6s-6.91-5.72-9.14-9.96c-2.23-4.23-3.35-9.09-3.35-14.57
		c0-5.55,1.11-10.45,3.35-14.68c2.23-4.23,5.25-7.55,9.04-9.96C1034.48,458.49,1038.71,457.29,1043.39,457.29z M1045.31,468.46
		c-3.05,0-5.72,0.75-8.02,2.23c-2.31,1.49-4.1,3.52-5.39,6.1c-1.29,2.57-1.93,5.48-1.93,8.73c0,3.18,0.64,6.06,1.93,8.64
		c1.29,2.57,3.08,4.6,5.39,6.09c2.3,1.48,4.97,2.23,8.02,2.23c3.12,0,5.83-0.75,8.12-2.23c2.3-1.49,4.1-3.52,5.39-6.09
		c1.29-2.58,1.93-5.46,1.93-8.64c0-3.25-0.64-6.16-1.93-8.73c-1.29-2.58-3.08-4.61-5.39-6.1
		C1051.14,469.21,1048.43,468.46,1045.31,468.46z"/>
	<path class="st7" d="M1174.73,458.3c1.76,0,3.21,0.59,4.37,1.78c1.15,1.19,1.72,2.66,1.72,4.42v43.17c0,6.23-1.17,11.19-3.51,14.88
		c-2.33,3.69-5.47,6.35-9.39,7.97c-3.93,1.62-8.34,2.45-13.21,2.45c-2.16,0-4.47-0.18-6.91-0.51c-2.44-0.34-4.43-0.85-6-1.53
		c-2.03-0.87-3.44-1.98-4.21-3.29c-0.78-1.32-0.94-2.73-0.46-4.22c0.61-1.96,1.59-3.3,2.95-4.01c1.35-0.72,2.77-0.79,4.27-0.26
		c1.08,0.34,2.51,0.87,4.27,1.57c1.76,0.72,3.79,1.07,6.09,1.07c3.12,0,5.7-0.42,7.77-1.27s3.62-2.27,4.67-4.27s1.58-4.72,1.58-8.18
		v-6.8l2.13,2.44c-1.15,2.23-2.59,4.08-4.32,5.54c-1.72,1.46-3.77,2.55-6.15,3.29c-2.37,0.75-5.08,1.12-8.12,1.12
		c-3.59,0-6.72-0.83-9.4-2.49s-4.76-3.96-6.24-6.91c-1.49-2.95-2.23-6.31-2.23-10.1V464.5c0-1.77,0.57-3.23,1.72-4.42
		c1.16-1.18,2.61-1.78,4.37-1.78c1.76,0,3.21,0.59,4.36,1.78c1.16,1.19,1.73,2.66,1.73,4.42v26c0,4.41,0.96,7.51,2.9,9.3
		c1.93,1.79,4.62,2.69,8.07,2.69c2.38,0,4.37-0.46,6-1.38c1.62-0.91,2.88-2.26,3.75-4.06c0.88-1.79,1.32-3.97,1.32-6.55v-26
		c0-1.77,0.57-3.23,1.73-4.42C1171.51,458.89,1172.97,458.3,1174.73,458.3z"/>
	<path class="st7" d="M1256.24,485.53c0,5.55-1.24,10.45-3.71,14.68c-2.47,4.23-5.79,7.53-9.95,9.9c-4.17,2.38-8.82,3.56-13.97,3.56
		c-5.15,0-9.8-1.18-13.96-3.56c-4.17-2.37-7.49-5.67-9.96-9.9c-2.47-4.23-3.7-9.12-3.7-14.68s1.23-10.45,3.7-14.68
		c2.47-4.23,5.79-7.55,9.96-9.96c4.16-2.4,8.81-3.6,13.96-3.6c5.15,0,9.8,1.2,13.97,3.6c4.16,2.41,7.48,5.73,9.95,9.96
		C1255,475.08,1256.24,479.97,1256.24,485.53z M1244.05,485.53c0-3.45-0.7-6.46-2.08-8.99c-1.39-2.54-3.25-4.52-5.59-5.94
		c-2.33-1.42-4.93-2.14-7.77-2.14c-2.84,0-5.43,0.72-7.77,2.14c-2.33,1.42-4.19,3.4-5.58,5.94c-1.4,2.53-2.08,5.54-2.08,8.99
		c0,3.38,0.69,6.35,2.08,8.88c1.39,2.54,3.25,4.52,5.58,5.94c2.34,1.42,4.93,2.14,7.77,2.14c2.84,0,5.44-0.72,7.77-2.14
		c2.34-1.42,4.2-3.4,5.59-5.94C1243.35,491.88,1244.05,488.91,1244.05,485.53z"/>
	<path class="st7" d="M1316.49,458.3c1.76,0,3.21,0.59,4.37,1.78c1.15,1.19,1.72,2.66,1.72,4.42v25.8c0,7.18-2,12.87-5.99,17.07
		c-4,4.19-9.76,6.3-17.27,6.3c-7.52,0-13.26-2.1-17.21-6.3c-3.97-4.2-5.94-9.89-5.94-17.07v-25.8c0-1.77,0.57-3.23,1.72-4.42
		c1.16-1.18,2.61-1.78,4.37-1.78c1.76,0,3.21,0.59,4.36,1.78c1.16,1.19,1.73,2.66,1.73,4.42v25.8c0,4.13,0.91,7.2,2.75,9.19
		c1.83,2,4.57,3,8.22,3c3.73,0,6.5-1,8.33-3c1.84-2,2.75-5.06,2.75-9.19v-25.8c0-1.77,0.57-3.23,1.73-4.42
		C1313.28,458.89,1314.74,458.3,1316.49,458.3z"/>
	<path class="st7" d="M1351.47,512.65c-1.77,0-3.21-0.59-4.37-1.78c-1.15-1.18-1.72-2.66-1.72-4.42V464.5
		c0-1.77,0.57-3.23,1.72-4.42c1.16-1.18,2.61-1.78,4.37-1.78c1.76,0,3.21,0.59,4.36,1.78c1.16,1.19,1.73,2.66,1.73,4.42v9.55
		l-0.72-6.81c0.75-1.62,1.71-3.06,2.9-4.31c1.18-1.25,2.53-2.3,4.02-3.15c1.48-0.85,3.07-1.47,4.77-1.88s3.39-0.61,5.08-0.61
		c2.03,0,3.74,0.57,5.13,1.73c1.39,1.15,2.08,2.5,2.08,4.06c0,2.23-0.57,3.84-1.72,4.82c-1.16,0.98-2.41,1.47-3.76,1.47
		c-1.29,0-2.46-0.24-3.51-0.72c-1.05-0.47-2.25-0.71-3.6-0.71c-1.22,0-2.46,0.29-3.71,0.87s-2.4,1.47-3.45,2.68
		c-1.05,1.22-1.9,2.73-2.54,4.52c-0.64,1.8-0.96,3.91-0.96,6.35v24.07c0,1.77-0.57,3.24-1.73,4.42
		C1354.68,512.06,1353.22,512.65,1351.47,512.65z"/>
	<path class="st7" d="M1466.36,457.29c4.74,0,8.99,1.2,12.74,3.6c3.76,2.41,6.74,5.71,8.95,9.91c2.2,4.2,3.3,9.08,3.3,14.62
		c0,5.55-1.1,10.45-3.3,14.68c-2.21,4.24-5.15,7.56-8.84,9.96c-3.69,2.4-7.84,3.6-12.44,3.6c-2.71,0-5.25-0.44-7.62-1.32
		c-2.37-0.87-4.45-2-6.24-3.35c-1.79-1.35-3.19-2.73-4.17-4.12c-0.98-1.39-1.47-2.55-1.47-3.51l3.15-1.32v7.41
		c0,1.77-0.57,3.24-1.73,4.42c-1.15,1.18-2.61,1.78-4.36,1.78c-1.77,0-3.21-0.57-4.37-1.73c-1.15-1.15-1.72-2.64-1.72-4.47v-63.79
		c0-1.77,0.57-3.23,1.72-4.42c1.16-1.18,2.61-1.78,4.37-1.78c1.76,0,3.21,0.59,4.36,1.78c1.16,1.19,1.73,2.66,1.73,4.42v25.8
		l-1.73-0.91c0-0.88,0.48-1.94,1.42-3.2c0.95-1.25,2.24-2.51,3.87-3.76c1.62-1.25,3.5-2.29,5.63-3.1
		C1461.74,457.69,1463.98,457.29,1466.36,457.29z M1464.83,468.46c-2.98,0-5.58,0.75-7.82,2.23c-2.23,1.49-3.98,3.51-5.24,6.05
		c-1.25,2.53-1.88,5.43-1.88,8.68c0,3.19,0.63,6.08,1.88,8.69s3,4.65,5.24,6.15c2.23,1.48,4.84,2.23,7.82,2.23
		c2.98,0,5.57-0.75,7.77-2.23c2.2-1.49,3.93-3.54,5.18-6.15s1.88-5.5,1.88-8.69c0-3.25-0.63-6.15-1.88-8.68
		c-1.25-2.54-2.98-4.56-5.18-6.05C1470.4,469.21,1467.82,468.46,1464.83,468.46z"/>
	<path class="st7" d="M1556.04,457.29c1.77,0,3.21,0.57,4.37,1.73c1.15,1.15,1.72,2.64,1.72,4.47v42.96c0,1.77-0.57,3.24-1.72,4.42
		c-1.16,1.18-2.61,1.78-4.37,1.78c-1.76,0-3.21-0.59-4.36-1.78c-1.16-1.18-1.73-2.66-1.73-4.42v-4.97l2.23,0.91
		c0,0.88-0.48,1.95-1.42,3.21c-0.94,1.25-2.23,2.48-3.86,3.7c-1.62,1.22-3.54,2.25-5.74,3.1c-2.2,0.85-4.58,1.27-7.16,1.27
		c-4.67,0-8.9-1.2-12.7-3.6c-3.79-2.4-6.78-5.72-8.99-9.96c-2.2-4.23-3.29-9.09-3.29-14.57c0-5.55,1.1-10.45,3.29-14.68
		c2.21-4.23,5.17-7.55,8.89-9.96c3.73-2.4,7.85-3.6,12.39-3.6c2.91,0,5.59,0.44,8.03,1.32c2.44,0.87,4.56,2,6.35,3.35
		c1.79,1.36,3.18,2.73,4.16,4.12c0.98,1.39,1.47,2.56,1.47,3.51l-3.66,1.32v-7.41c0-1.77,0.57-3.23,1.73-4.42
		C1552.83,457.88,1554.28,457.29,1556.04,457.29z M1535.53,502.49c2.98,0,5.58-0.75,7.82-2.23c2.24-1.49,3.98-3.52,5.24-6.09
		c1.25-2.58,1.88-5.46,1.88-8.64c0-3.25-0.63-6.16-1.88-8.73c-1.25-2.58-2.99-4.61-5.24-6.1c-2.23-1.48-4.84-2.23-7.82-2.23
		c-2.91,0-5.48,0.75-7.72,2.23c-2.23,1.49-3.98,3.52-5.24,6.1c-1.25,2.57-1.88,5.48-1.88,8.73c0,3.18,0.63,6.06,1.88,8.64
		c1.25,2.57,3,4.6,5.24,6.09C1530.04,501.74,1532.61,502.49,1535.53,502.49z"/>
	<path class="st7" d="M1597.93,506.45c0,1.77-0.59,3.24-1.78,4.42c-1.19,1.18-2.66,1.78-4.42,1.78c-1.69,0-3.11-0.59-4.27-1.78
		c-1.15-1.18-1.72-2.66-1.72-4.42v-62.77c0-1.77,0.59-3.23,1.78-4.42c1.18-1.18,2.66-1.78,4.42-1.78c1.77,0,3.21,0.59,4.32,1.78
		c1.12,1.19,1.68,2.66,1.68,4.42V506.45z"/>
	<path class="st7" d="M1666,457.29c1.77,0,3.21,0.57,4.37,1.73c1.15,1.15,1.72,2.64,1.72,4.47v42.96c0,1.77-0.57,3.24-1.72,4.42
		c-1.16,1.18-2.61,1.78-4.37,1.78c-1.76,0-3.21-0.59-4.36-1.78c-1.16-1.18-1.73-2.66-1.73-4.42v-4.97l2.23,0.91
		c0,0.88-0.48,1.95-1.42,3.21c-0.94,1.25-2.23,2.48-3.86,3.7c-1.62,1.22-3.54,2.25-5.74,3.1c-2.2,0.85-4.58,1.27-7.16,1.27
		c-4.67,0-8.9-1.2-12.7-3.6c-3.79-2.4-6.78-5.72-8.99-9.96c-2.2-4.23-3.29-9.09-3.29-14.57c0-5.55,1.1-10.45,3.29-14.68
		c2.21-4.23,5.17-7.55,8.89-9.96c3.73-2.4,7.85-3.6,12.39-3.6c2.91,0,5.59,0.44,8.03,1.32c2.44,0.87,4.56,2,6.35,3.35
		c1.79,1.36,3.18,2.73,4.16,4.12c0.98,1.39,1.47,2.56,1.47,3.51l-3.66,1.32v-7.41c0-1.77,0.57-3.23,1.73-4.42
		C1662.79,457.88,1664.24,457.29,1666,457.29z M1645.48,502.49c2.98,0,5.58-0.75,7.82-2.23c2.24-1.49,3.98-3.52,5.24-6.09
		c1.25-2.58,1.88-5.46,1.88-8.64c0-3.25-0.63-6.16-1.88-8.73c-1.25-2.58-2.99-4.61-5.24-6.1c-2.23-1.48-4.84-2.23-7.82-2.23
		c-2.91,0-5.48,0.75-7.72,2.23c-2.23,1.49-3.98,3.52-5.24,6.1c-1.25,2.57-1.88,5.48-1.88,8.73c0,3.18,0.63,6.06,1.88,8.64
		c1.25,2.57,3,4.6,5.24,6.09C1640,501.74,1642.57,502.49,1645.48,502.49z"/>
	<path class="st7" d="M1723.99,457.29c5.02,0,8.82,1.05,11.43,3.15c2.61,2.09,4.41,4.89,5.39,8.38c0.98,3.49,1.47,7.37,1.47,11.63
		v26c0,1.77-0.57,3.24-1.73,4.42c-1.15,1.18-2.61,1.78-4.36,1.78c-1.77,0-3.22-0.59-4.37-1.78s-1.72-2.66-1.72-4.42v-26
		c0-2.23-0.29-4.25-0.87-6.05c-0.57-1.79-1.61-3.23-3.1-4.32c-1.49-1.08-3.62-1.62-6.4-1.62c-2.71,0-4.99,0.55-6.85,1.62
		c-1.86,1.09-3.29,2.53-4.27,4.32c-0.98,1.8-1.47,3.82-1.47,6.05v26c0,1.77-0.57,3.24-1.73,4.42c-1.15,1.18-2.61,1.78-4.36,1.78
		c-1.77,0-3.21-0.59-4.37-1.78c-1.15-1.18-1.72-2.66-1.72-4.42V464.5c0-1.77,0.57-3.23,1.72-4.42c1.16-1.18,2.61-1.78,4.37-1.78
		c1.76,0,3.21,0.59,4.36,1.78c1.16,1.19,1.73,2.66,1.73,4.42v4.36l-1.53-0.3c0.61-1.15,1.49-2.38,2.64-3.71
		c1.16-1.32,2.51-2.55,4.07-3.71c1.55-1.15,3.31-2.08,5.28-2.79C1719.56,457.64,1721.7,457.29,1723.99,457.29z"/>
	<path class="st7" d="M1788.98,457.29c3.86,0,7.22,0.41,10.1,1.22c2.88,0.81,5.11,1.95,6.7,3.4c1.6,1.46,2.39,3.21,2.39,5.24
		c0,1.35-0.41,2.62-1.22,3.81c-0.81,1.18-2,1.78-3.56,1.78c-1.09,0-1.98-0.15-2.69-0.45c-0.71-0.31-1.33-0.7-1.87-1.17
		c-0.55-0.47-1.19-0.91-1.93-1.32c-0.68-0.41-1.71-0.72-3.1-0.96c-1.39-0.24-2.42-0.36-3.1-0.36c-3.45,0-6.39,0.75-8.79,2.23
		c-2.4,1.49-4.25,3.51-5.54,6.05c-1.28,2.53-1.93,5.47-1.93,8.79c0,3.25,0.66,6.15,1.98,8.68c1.32,2.54,3.15,4.56,5.48,6.05
		c2.34,1.48,5.03,2.23,8.08,2.23c1.69,0,3.14-0.11,4.36-0.31c1.22-0.2,2.23-0.5,3.05-0.91c0.95-0.55,1.8-1.12,2.54-1.73
		c0.74-0.61,1.86-0.91,3.36-0.91c1.76,0,3.11,0.56,4.06,1.67c0.94,1.12,1.42,2.49,1.42,4.12c0,1.7-0.95,3.24-2.84,4.63
		c-1.9,1.39-4.39,2.5-7.47,3.35c-3.08,0.85-6.41,1.27-10.01,1.27c-5.35,0-9.99-1.24-13.92-3.71c-3.92-2.47-6.96-5.84-9.09-10.1
		c-2.14-4.27-3.2-9.04-3.2-14.32c0-5.55,1.13-10.45,3.4-14.68c2.27-4.23,5.41-7.55,9.45-9.96
		C1779.14,458.49,1783.76,457.29,1788.98,457.29z"/>
	<path class="st7" d="M1851.56,513.67c-5.76,0-10.76-1.2-14.99-3.6c-4.23-2.4-7.48-5.67-9.75-9.8c-2.27-4.13-3.4-8.8-3.4-14.02
		c0-6.09,1.23-11.29,3.7-15.59c2.47-4.3,5.71-7.6,9.71-9.91c3.99-2.3,8.23-3.45,12.7-3.45c3.45,0,6.72,0.72,9.8,2.14
		c3.08,1.42,5.8,3.36,8.18,5.84c2.37,2.47,4.25,5.33,5.63,8.58s2.08,6.7,2.08,10.36c-0.07,1.62-0.72,2.95-1.93,3.97
		s-2.64,1.52-4.27,1.52h-38.8l-3.05-10.16h37.29l-2.23,2.03v-2.74c-0.14-1.97-0.83-3.73-2.08-5.28c-1.25-1.56-2.82-2.8-4.67-3.71
		c-1.86-0.92-3.85-1.38-5.94-1.38c-2.03,0-3.93,0.27-5.69,0.81c-1.77,0.55-3.29,1.46-4.57,2.75c-1.29,1.29-2.3,3.01-3.05,5.18
		c-0.75,2.16-1.12,4.91-1.12,8.22c0,3.66,0.77,6.76,2.29,9.3c1.53,2.53,3.49,4.47,5.89,5.78c2.4,1.32,4.96,1.99,7.67,1.99
		c2.5,0,4.5-0.2,5.99-0.61c1.49-0.41,2.69-0.9,3.61-1.47c0.91-0.57,1.74-1.07,2.49-1.47c1.22-0.61,2.37-0.91,3.45-0.91
		c1.48,0,2.72,0.5,3.71,1.52c0.98,1.02,1.47,2.2,1.47,3.56c0,1.83-0.94,3.49-2.84,4.97c-1.76,1.49-4.23,2.8-7.41,3.91
		C1858.23,513.11,1854.95,513.67,1851.56,513.67z"/>
</g>
</svg>
