<?xml version="1.0" encoding="utf-8"?>
<!-- Generator: Adobe Illustrator 25.2.1, SVG Export Plug-In . SVG Version: 6.00 Build 0)  -->
<svg version="1.1" id="Layer_1" xmlns="http://www.w3.org/2000/svg" xmlns:xlink="http://www.w3.org/1999/xlink" x="0px" y="0px"
	 viewBox="0 0 646.62 612" style="enable-background:new 0 0 646.62 612;" xml:space="preserve">
<style type="text/css">
	.st0{fill:#FFFFFF;}
	.st1{fill:url(#SVGID_1_);}
	.st2{fill:url(#SVGID_2_);}
	.st3{fill:url(#SVGID_3_);}
	.st4{fill:url(#SVGID_4_);}
	.st5{fill:url(#SVGID_5_);}
	.st6{fill:url(#SVGID_6_);}
	.st7{fill:#0E0E3D;}
	.st8{fill:url(#SVGID_7_);}
	.st9{fill:url(#SVGID_8_);}
</style>
<linearGradient id="SVGID_1_" gradientUnits="userSpaceOnUse" x1="106.8262" y1="533.4135" x2="534.3624" y2="105.8773">
	<stop  offset="0" style="stop-color:#229ABD"/>
	<stop  offset="1" style="stop-color:#BFD3D8"/>
</linearGradient>
<path class="st1" d="M374.47,97.45v0.57c0,0.38-0.03,0.79-0.06,1.14l-0.03,0.6c-0.03,0.6-0.06,1.17-0.13,1.71v0.16
	c-1.33,15.48-8.25,28.74-18.94,37.79c-5.62,4.73-12.28,8.31-19.77,10.41l-0.1,0.03c-3.45,1.12-7.24,1.64-10.78,1.85
	c0.32-8.3,0.5-16.78,0.5-25.43c0-26.53-1.56-51.65-4.34-74.13c-2.78,22.48-4.35,47.6-4.35,74.13c0,8.67,0.18,17.17,0.5,25.49
	c-1.64-0.07-3.01-0.18-3.96-0.27h-0.13c-0.44,0-0.89-0.03-1.3-0.19l-5.46-1.49c-21.86-6.12-36.71-24.59-38.74-48.19l-0.03-0.29
	c-0.06-0.51-0.1-1.05-0.13-1.59l-0.03-0.44c0-0.44-0.03-0.89-0.03-1.33v-0.54c-0.06-4.89,0.32-9.77,1.43-14.53
	c5.74-24.05,21.29-47.94,47.59-73.1c0.73-0.73,1.46-1.46,2.19-2.22c0.6-0.7,1.59-1.71,2.44-2.51c0.86,0.79,1.81,1.81,2.41,2.51
	c0.76,0.76,1.46,1.49,2.22,2.22c21.26,20.34,35.47,39.82,43.18,59.26c1.81,4.63,3.27,9.26,4.38,13.86
	C374.15,87.68,374.53,92.57,374.47,97.45z M250.73,87.62c-3.26-3.43-6.84-6.71-10.72-9.82c-16.4-12.99-38.45-22.75-67.03-29.73
	c-1.02-0.25-1.99-0.53-3.03-0.81c-0.87-0.3-2.2-0.71-3.34-0.96c-0.35,1.12-0.69,2.49-0.86,3.39c-0.25,1.02-0.52,2.02-0.79,3.02
	c-10.2,34.94-11.72,63.4-4.66,87.1c1.42,4.68,3.53,9.1,6.03,13.3l0.27,0.47c0.22,0.38,0.47,0.75,0.69,1.14l0.25,0.37
	c0.3,0.45,0.59,0.9,0.9,1.31l0.17,0.23c13.56,19.43,35.65,27.99,57.64,22.37l5.47-1.44c0.44-0.07,0.84-0.26,1.22-0.49l0.11-0.06
	c0.87-0.4,2.11-0.99,3.57-1.75c-4.44-7.05-8.85-14.32-13.18-21.82c-13.26-22.97-24.47-45.51-33.3-66.37
	c13.65,18.08,27.56,39.05,40.83,62.02c4.32,7.49,8.4,14.92,12.28,22.27c2.96-1.96,5.99-4.3,8.41-7l0.07-0.08
	c5.44-5.56,9.41-11.99,11.91-18.89c4.74-13.18,4.1-28.12-2.49-42.19l-0.08-0.14c-0.21-0.5-0.47-1.01-0.75-1.55l-0.27-0.54
	c-0.15-0.32-0.33-0.69-0.52-1.02l-0.29-0.49C256.85,95.18,254.08,91.14,250.73,87.62z M147.16,152.8c-4.54-1.34-9.28-2.39-14.2-3.14
	c-20.7-3.05-44.67-0.48-72.91,7.76c-1.01,0.29-1.99,0.53-3.03,0.81c-0.91,0.17-2.26,0.49-3.38,0.83c0.26,1.14,0.65,2.5,0.95,3.37
	c0.29,1.01,0.56,2.01,0.83,3.01c8.64,35.36,21.55,60.76,39.51,77.76c3.57,3.34,7.61,6.11,11.87,8.5l0.47,0.27
	c0.38,0.22,0.79,0.42,1.17,0.64l0.4,0.19c0.48,0.24,0.97,0.48,1.44,0.68l0.26,0.12c21.46,10.04,44.87,6.42,61.1-9.45l4.02-3.98
	c0.34-0.28,0.59-0.65,0.82-1.03l0.06-0.11c0.55-0.78,1.33-1.91,2.22-3.3c-7.37-3.88-14.82-7.97-22.33-12.31
	c-22.97-13.26-43.95-27.18-62.02-40.83c20.86,8.83,43.4,20.04,66.37,33.3c7.49,4.32,14.74,8.72,21.77,13.15
	c1.58-3.18,3.03-6.72,3.79-10.27l0.02-0.1c1.93-7.53,2.16-15.09,0.87-22.32c-2.48-13.78-10.51-26.4-23.25-35.3l-0.14-0.08
	c-0.44-0.32-0.91-0.64-1.42-0.97l-0.51-0.33c-0.29-0.2-0.63-0.44-0.96-0.63l-0.49-0.29C156.24,156.28,151.82,154.17,147.16,152.8z
	 M85.8,262.45c-4.6,1.11-9.23,2.57-13.86,4.38c-19.45,7.71-38.93,21.92-59.26,43.18c-0.73,0.76-1.46,1.46-2.22,2.22
	c-0.7,0.6-1.71,1.55-2.51,2.41c0.79,0.86,1.81,1.84,2.51,2.44c0.76,0.73,1.49,1.46,2.22,2.19c25.16,26.3,49.05,41.85,73.1,47.59
	c4.76,1.11,9.64,1.49,14.53,1.43h0.54c0.44,0,0.89-0.03,1.33-0.03l0.44-0.03c0.54-0.03,1.08-0.06,1.59-0.13l0.29-0.03
	c23.6-2.03,42.07-16.88,48.19-38.74l1.49-5.46c0.16-0.41,0.19-0.86,0.19-1.3v-0.13c0.09-0.96,0.2-2.32,0.27-3.96
	c-8.33,0.32-16.82,0.5-25.49,0.5c-26.53,0-51.65-1.56-74.13-4.35c22.48-2.78,47.6-4.34,74.13-4.34c8.65,0,17.12,0.18,25.43,0.5
	c-0.22-3.54-0.73-7.33-1.85-10.78l-0.03-0.1c-2.09-7.49-5.68-14.15-10.41-19.77c-9.04-10.69-22.3-17.61-37.79-18.94h-0.16
	c-0.54-0.06-1.11-0.1-1.71-0.13l-0.6-0.03c-0.35-0.03-0.76-0.06-1.14-0.06h-0.57C95.41,260.93,90.53,261.31,85.8,262.45z
	 M87.06,397.16c-2.83,3.79-5.47,7.87-7.88,12.22c-10.05,18.35-15.97,41.72-18.06,71.07c-0.08,1.05-0.19,2.05-0.29,3.13
	c-0.15,0.91-0.33,2.29-0.39,3.46c1.16,0.15,2.57,0.26,3.49,0.28c1.05,0.08,2.08,0.17,3.11,0.27c36.15,4.19,64.47,0.9,86.64-10.03
	c4.37-2.18,8.38-5.01,12.1-8.18l0.42-0.34c0.34-0.28,0.66-0.59,1.01-0.87l0.32-0.31c0.39-0.37,0.79-0.74,1.14-1.11l0.2-0.21
	c16.87-16.63,21.61-39.85,12.37-60.58l-2.34-5.15c-0.14-0.42-0.4-0.78-0.68-1.12l-0.08-0.1c-0.54-0.79-1.33-1.91-2.32-3.22
	c-6.2,5.56-12.63,11.13-19.3,16.66c-20.42,16.93-40.76,31.77-59.84,43.97c15.53-16.49,33.87-33.73,54.29-50.66
	c6.66-5.52,13.3-10.79,19.89-15.84c-2.43-2.59-5.24-5.18-8.31-7.12l-0.09-0.05c-6.39-4.43-13.4-7.27-20.63-8.57
	c-13.78-2.46-28.41,0.68-41.18,9.54l-0.12,0.1c-0.46,0.3-0.92,0.64-1.4,1l-0.48,0.36c-0.29,0.2-0.63,0.44-0.92,0.68l-0.44,0.36
	C93.49,389.85,89.97,393.27,87.06,397.16z M381.95,99.44l-0.29,0.49c-0.19,0.33-0.37,0.7-0.52,1.02l-0.27,0.54
	c-0.27,0.54-0.53,1.05-0.75,1.55l-0.08,0.14c-6.59,14.07-7.23,29.02-2.49,42.19c2.5,6.9,6.48,13.34,11.91,18.89l0.07,0.08
	c2.43,2.7,5.45,5.04,8.41,7c3.88-7.35,7.96-14.78,12.28-22.27c13.26-22.97,27.18-43.95,40.83-62.02
	c-8.83,20.86-20.04,43.4-33.3,66.37c-4.33,7.51-8.74,14.78-13.18,21.82c1.46,0.76,2.7,1.35,3.57,1.75l0.11,0.06
	c0.38,0.22,0.79,0.42,1.22,0.49l5.47,1.44c21.99,5.63,44.08-2.94,57.64-22.37l0.17-0.23c0.31-0.41,0.61-0.86,0.9-1.31l0.25-0.37
	c0.22-0.38,0.47-0.75,0.69-1.14l0.27-0.47c2.5-4.2,4.61-8.62,6.03-13.3c7.05-23.7,5.53-52.16-4.66-87.1c-0.27-1-0.53-1.99-0.79-3.02
	c-0.17-0.91-0.52-2.28-0.86-3.39c-1.14,0.26-2.47,0.66-3.34,0.96c-1.04,0.28-2.01,0.56-3.03,0.81
	c-28.58,6.98-50.63,16.75-67.03,29.73c-3.88,3.11-7.46,6.39-10.72,9.82C387.11,91.14,384.34,95.18,381.95,99.44z M480.75,158.78
	l-0.49,0.29c-0.33,0.19-0.67,0.42-0.96,0.63l-0.51,0.33c-0.51,0.33-0.98,0.64-1.42,0.97l-0.14,0.08
	c-12.74,8.9-20.77,21.52-23.25,35.3c-1.29,7.23-1.06,14.79,0.87,22.32l0.02,0.1c0.75,3.55,2.2,7.09,3.79,10.27
	c7.03-4.43,14.28-8.83,21.77-13.15c22.97-13.26,45.51-24.47,66.37-33.3c-18.08,13.65-39.05,27.56-62.02,40.83
	c-7.51,4.33-14.96,8.42-22.33,12.31c0.88,1.39,1.66,2.52,2.22,3.3l0.06,0.11c0.22,0.38,0.47,0.75,0.82,1.03l4.02,3.98
	c16.23,15.87,39.65,19.5,61.1,9.45l0.26-0.12c0.47-0.2,0.95-0.44,1.44-0.68l0.4-0.19c0.38-0.22,0.79-0.42,1.17-0.64l0.47-0.27
	c4.26-2.39,8.3-5.16,11.87-8.5c17.96-17,30.87-42.4,39.51-77.76c0.27-1,0.53-1.99,0.83-3.01c0.3-0.87,0.69-2.23,0.95-3.37
	c-1.12-0.35-2.47-0.66-3.38-0.83c-1.04-0.28-2.02-0.52-3.03-0.81c-28.24-8.24-52.22-10.81-72.91-7.76c-4.92,0.75-9.66,1.8-14.2,3.14
	C489.37,154.17,484.94,156.28,480.75,158.78z M540.89,260.99h-0.57c-0.38,0-0.79,0.03-1.14,0.06l-0.6,0.03
	c-0.6,0.03-1.17,0.06-1.71,0.13h-0.16c-15.48,1.33-28.74,8.25-37.79,18.94c-4.73,5.62-8.31,12.28-10.41,19.77l-0.03,0.1
	c-1.12,3.45-1.64,7.24-1.85,10.78c8.3-0.32,16.78-0.5,25.43-0.5c26.53,0,51.65,1.56,74.13,4.34c-22.48,2.78-47.6,4.35-74.13,4.35
	c-8.67,0-17.17-0.18-25.49-0.5c0.07,1.64,0.18,3.01,0.27,3.96v0.13c0,0.44,0.03,0.89,0.19,1.3l1.49,5.46
	c6.12,21.86,24.59,36.71,48.19,38.74l0.29,0.03c0.51,0.06,1.05,0.1,1.59,0.13l0.44,0.03c0.44,0,0.89,0.03,1.33,0.03h0.54
	c4.89,0.06,9.77-0.32,14.53-1.43c24.05-5.74,47.94-21.29,73.1-47.59c0.73-0.73,1.46-1.46,2.22-2.19c0.7-0.6,1.71-1.59,2.51-2.44
	c-0.79-0.86-1.81-1.81-2.51-2.41c-0.76-0.76-1.49-1.46-2.22-2.22c-20.34-21.26-39.82-35.47-59.26-43.18
	c-4.63-1.81-9.26-3.27-13.86-4.38C550.66,261.31,545.78,260.93,540.89,260.99z M543.9,386.78l-0.44-0.36
	c-0.29-0.24-0.63-0.48-0.92-0.68l-0.48-0.36c-0.48-0.36-0.94-0.7-1.4-1l-0.12-0.1c-12.77-8.86-27.39-12-41.18-9.54
	c-7.22,1.31-14.24,4.15-20.63,8.57l-0.09,0.05c-3.07,1.94-5.88,4.53-8.31,7.12c6.6,5.05,13.24,10.33,19.89,15.84
	c20.42,16.93,38.76,34.17,54.29,50.66c-19.08-12.21-39.42-27.04-59.84-43.97c-6.67-5.53-13.1-11.1-19.3-16.66
	c-0.99,1.31-1.78,2.43-2.32,3.22l-0.08,0.1c-0.28,0.34-0.54,0.7-0.68,1.12l-2.34,5.15c-9.24,20.74-4.5,43.95,12.37,60.58l0.2,0.21
	c0.35,0.37,0.75,0.74,1.14,1.11l0.32,0.31c0.34,0.28,0.66,0.59,1.01,0.87l0.42,0.34c3.72,3.17,7.72,5.99,12.1,8.18
	c22.18,10.93,50.49,14.21,86.64,10.03c1.03-0.1,2.05-0.19,3.11-0.27c0.92-0.02,2.33-0.13,3.49-0.28c-0.06-1.17-0.24-2.55-0.39-3.46
	c-0.1-1.07-0.22-2.08-0.29-3.13c-2.09-29.34-8.01-52.72-18.06-71.07c-2.41-4.35-5.05-8.43-7.88-12.22
	C551.22,393.27,547.7,389.85,543.9,386.78z"/>
<g>
	
		<ellipse transform="matrix(0.7854 -0.619 0.619 0.7854 -89.4256 253.2906)" class="st0" cx="320.59" cy="255.62" rx="45.86" ry="45.86"/>
	<path class="st0" d="M490.32,268.56c0,0-85.22,29.71-144.11,104.5c-8.25,11.64-15.64,23.28-22.15,34.75
		c-6.51-11.47-13.9-23.11-22.15-34.75c-58.9-74.79-144.11-104.5-144.11-104.5c80.87,77.31,129,163.92,129,226.9
		c0,21.98-5.82,41-18.07,55.77c-6.86,8.34-15.46,14.85-25.54,19.72l-2.61,1.22l-45,21.46h-0.09l-21.54,10.25h150.1h150.1
		l-21.54-10.25h-0.09l-45-21.46l-2.61-1.22c-10.08-4.86-18.68-11.38-25.54-19.72c-12.25-14.77-18.07-33.79-18.07-55.77
		C361.33,432.48,409.45,345.87,490.32,268.56z"/>
</g>
</svg>
